PathFileType	4	(X/Y/Z)	C:/Users/beibeiliu/ov580/test_trc/User3\sequence.18_training_dense_right.trc
DataRate	CameraRate	NumFrames	NumMarkers	Units	OrigDataRate	OrigDataStartFrame	OrigNumFrames
120	120	20	19	mm	120	29	84
Frame#	Time	ThumbCMC			ThumbMCP			ThumbIP			ThumbTip			IndexMCP			IndexPIP			IndexTip			MiddleMCP			MiddlePIP			MiddleTip			RingMCP			RingPIP			RingTip			PinkyMCP			PinkyPIP			PinkyTip			BackHand1			BackHand2			BackHand3	
		X0	Y0	Z0	X1	Y1	Z1	X2	Y2	Z2	X3	Y3	Z3	X4	Y4	Z4	X5	Y5	Z5	X6	Y6	Z6	X7	Y7	Z7	X8	Y8	Z8	X9	Y9	Z9	X10	Y10	Z10	X11	Y11	Z11	X12	Y12	Z12	X13	Y13	Z13	X14	Y14	Z14	X15	Y15	Z15	X16	Y16	Z16	X17	Y17	Z17	X18	Y18	Z18	
28	0.233333	60.4778	-26.431	15.0653	40.812	-41.597	-12.4727	35.197	-56.1786	-36.0028	45.732	-74.3425	-54.7467	71.3279	-0.569031	-56.9871	64.6474	4.08919	-78.0462	57.2495	7.89646	-106.438	74.8083	-32.7186	-66.4228	51.1198	-53.7345	-68.971	52.8641	-59.803	-27.8503	80.7786	-55.8075	-56.2435	60.9763	-75.6292	-45.307	64.8145	-68.7001	-13.2258	92.1319	-70.1432	-46.0715	70.6144	-82.14	-32.5122	76.0229	-74.1036	-4.4648	116.545	-31.1455	-13.9364	124.756	-35.7743	18.1484	94.8565	-9.57823	4.77897	
29	0.241667	61.588	-27.3341	13.7878	40.3644	-43.0642	-11.806	31.221	-57.892	-41.0308	48.4103	-75.1008	-57.5767	72.0986	-5.27774	-62.7974	64.9613	0.653324	-82.5387	58.7049	3.89485	-106.661	74.5252	-36.0332	-71.1278	51.3961	-58.2904	-70.0212	51.1861	-58.6473	-29.2761	82.3157	-57.348	-57.8032	59.0351	-76.328	-46.4096	62.9401	-67.0994	-14.3861	92.2566	-70.6297	-48.3222	69.9869	-84.0648	-33.9421	75.5686	-76.1243	-6.88011	115.909	-33.1491	-19.1921	125.427	-36.7995	13.5926	93.8664	-11.0162	5.02276	
30	0.25	58.7589	-24.5154	10.3559	38.2843	-41.1688	-14.3724	31.4396	-57.3556	-38.1483	43.6597	-74.3708	-53.8613	68.008	-2.88477	-60.7713	64.0468	-1.71429	-86.6689	58.2449	2.45499	-108.126	72.7639	-36.3468	-70.4101	48.579	-59.0278	-70.0864	51.1852	-60.787	-31.3577	79.1986	-58.1058	-59.7891	56.425	-75.144	-47.5944	64.8001	-67.4058	-13.2532	88.8929	-69.29	-48.6423	67.3534	-79.7801	-35.4052	71.8156	-72.7374	-8.56279	115.01	-33.6171	-19.521	121.309	-34.7356	10.205	94.4136	-9.7808	2.59601	
31	0.258333	57.8451	-22.0221	16.5278	36.2198	-40.2673	-10.7166	28.9903	-56.0224	-32.8797	41.9655	-75.8601	-50.1918	68.4747	-4.19257	-55.2256	59.5618	1.31949	-82.4836	54.8442	2.22926	-106.357	69.6485	-35.5109	-67.0762	46.8072	-58.3777	-65.5147	46.5677	-58.3373	-23.3042	74.4734	-55.7088	-54.4454	55.5139	-74.759	-40.8092	57.0886	-66.0384	-10.7307	87.8299	-69.5219	-43.5538	66.0848	-78.8764	-30.8029	69.0607	-67.5792	-3.17632	110.964	-29.6192	-16.056	120.011	-28.3981	16.4029	94.277	-9.18561	5.05446	
32	0.266667	53.2647	-17.1653	32.416	31.2979	-36.8418	2.78802	23.1569	-53.315	-22.1382	39.5427	-72.6443	-36.9576	63.5391	0.606928	-41.4811	51.6835	7.22976	-70.0568	46.3559	7.41083	-90.1788	65.6683	-29.4166	-50.9794	38.5929	-51.8116	-51.3556	44.1328	-57.3998	-12.374	72.0903	-50.8579	-41.4706	50.4066	-69.771	-29.9709	57.4392	-62.7391	3.72844	84.3045	-63.3379	-31.5733	63.9714	-78.8211	-17.3495	68.7989	-62.7566	10.3038	110.836	-26.6709	-3.79004	118.642	-29.3811	25.2855	90.8454	-5.0575	14.2162	
33	0.275	50.6489	-15.0955	47.1652	26.595	-32.1599	24.1085	19.1803	-49.8658	-1.75859	33.5694	-68.6795	-22.4003	55.7774	7.67321	-28.3963	48.506	10.5353	-51.1762	43.5154	9.65115	-75.149	62.9592	-27.1011	-34.6774	35.3066	-48.074	-36.493	37.3488	-52.326	2.28449	66.1861	-49.275	-27.2168	47.7262	-67.4108	-14	54.6402	-61.4862	17.0545	77.9825	-60.9842	-17.1955	58.9391	-73.9781	-1.7453	66.4527	-61.079	28.9913	106.448	-20.5521	11.434	112.864	-22.7135	39.4064	83.9577	0.616561	34.9032	
34	0.283333	47.1162	-12.8656	54.3452	22.0071	-28.6858	30.1458	18.329	-44.996	8.90416	28.1731	-64.8137	-13.0185	54.8113	5.51605	-18.446	42.8262	14.0927	-44.8376	38.5603	13.7711	-64.9402	52.6953	-21.731	-27.724	31.2393	-44.2279	-27.4168	36.6857	-48.0044	13.6818	61.6213	-43.4299	-16.7671	43.9435	-63.4799	-5.95778	48.5176	-53.0952	28.9626	73.1747	-57.9846	-6.84632	54.7652	-70.5347	9.24366	60.2369	-56.9732	35.4702	101.56	-21.5444	22.7084	108.365	-21.6362	52.5596	79.9327	2.21123	41.3552	
35	0.291667	44.1489	-10.9927	56.9915	19.0904	-26.379	27.7835	10.5031	-42.4335	5.20609	25.7286	-59.9971	-10.4775	48.343	11.3479	-20.8688	42.4721	11.0774	-42.8183	34.0958	16.1214	-65.2112	50.0069	-22.0088	-30.0573	27.262	-44.3797	-26.7056	34.3651	-48.0355	11.661	60.5352	-43.7661	-17.119	36.5014	-60.7271	-3.31549	47.0913	-52.5087	29.3436	66.6358	-56.8266	-8.36826	50.1611	-67.1839	6.11309	57.2732	-55.1826	34.5666	96.4483	-15.8448	21.428	105.624	-20.0391	53.7971	79.1598	2.78516	41.158	
36	0.3	41.361	-7.86585	44.9877	18.8752	-23.8368	23.2983	9.72858	-39.8466	-6.99132	21.8284	-58.2294	-20.4836	50.5544	9.99277	-28.8523	40.1882	15.8886	-51.1215	35.9944	14.9733	-73.8457	46.8684	-18.4541	-36.402	26.4049	-41.3912	-34.2749	30.2384	-41.7359	7.58851	57.7167	-40.5792	-24.3187	35.664	-59.2263	-9.6741	42.7913	-48.9035	20.7105	69.3206	-56.1217	-14.1955	46.0833	-66.4656	4.30378	50.6018	-54.6231	26.638	93.538	-16.4203	14.1447	101.772	-16.5341	41.4027	77.1377	4.96981	36.2592	
37	0.308333	42.8997	-4.08996	38.5487	17.3089	-18.2043	13.19	8.45161	-34.7235	-17.2193	21.7501	-53.7817	-31.1349	51.2461	14.3987	-37.188	44.7955	18.3944	-61.3542	35.4586	24.4868	-85.0073	50.0474	-15.7077	-46.3745	28.0203	-38.8509	-42.9772	33.4459	-38.8338	-3.0811	59.1073	-36.2326	-34.7343	35.3193	-54.297	-19.1661	39.4247	-45.0505	10.0213	67.763	-53.2239	-24.042	46.1618	-61.2765	-6.23887	51.3199	-46.9814	18.9796	96.9401	-12.1931	5.14981	105.359	-14.7546	31.3909	76.915	9.936	21.2037	
38	0.316667	43.6573	1.95467	31.2462	19.409	-12.9194	5.18075	10.4261	-29.1624	-23.8377	19.7657	-48.4944	-36.8432	53.2439	19.9616	-48.3281	45.0166	25.8981	-70.8912	38.3682	27.4028	-94.9436	53.9389	-13.3033	-52.7541	26.7452	-31.3768	-50.4322	30.8337	-32.0703	-8.56369	56.127	-32.2019	-42.3974	37.4999	-50.71	-30.3214	39.3728	-40.7716	2.84434	70.0442	-46.7686	-31.277	49.2091	-58.7295	-17.8753	50.8681	-45.9253	8.76073	96.5979	-9.63098	-1.81443	103.793	-9.49047	24.9687	80.5389	14.3614	14.6842	
39	0.325	41.5983	4.2692	27.3602	21.6849	-13.0435	-2.85865	15.4487	-29.3263	-27.0454	21.7848	-48.211	-39.5211	54.2114	20.9011	-45.9066	46.9211	27.3442	-71.3945	39.8424	29.6708	-96.7573	51.521	-10.019	-57.563	27.2245	-32.9907	-52.3363	33.4305	-33.6935	-13.0728	58.4743	-34.5703	-46.6988	36.7155	-48.8423	-32.5461	41.9048	-39.0531	-0.138152	68.803	-43.9963	-35.7601	47.7661	-57.0202	-20.1461	54.4866	-44.4176	7.19895	99.7909	-11.6137	-6.7268	106.789	-13.2104	24.5316	81.008	15.7105	11.4087	
40	0.333333	44.2984	0.534045	22.9795	24.0015	-17.3107	-1.47333	14.8888	-33.4189	-26.7159	26.5943	-51.7128	-41.9444	57.0743	17.3068	-48.6438	50.8266	18.8026	-74.7436	41.8775	20.0352	-102.203	58.9338	-15.7059	-58.8056	31.8119	-32.9754	-59.9021	31.641	-39.0142	-18.7347	65.3903	-37.3881	-46.4267	39.9959	-52.7409	-36.3085	44.7879	-46.8525	-3.84842	72.9676	-52.8375	-37.1586	50.7629	-62.539	-21.2948	57.5298	-50.9703	5.26827	99.7534	-13.6055	-7.68927	109.157	-15.0268	22.5872	83.4801	7.95887	11.1602	
41	0.341667	46.8083	-5.90835	22.176	24.2785	-22.4292	-1.77486	21.5957	-39.2648	-30.1924	33.4701	-58.9952	-45.7949	56.7894	12.5235	-51.1267	49.5961	12.0945	-78.3481	39.2544	10.6053	-100.601	63.5367	-14.1294	-64.8745	41.8549	-36.3348	-71.545	34.4968	-48.4068	-33.6403	67.9387	-41.3461	-52.111	45.4073	-56.8946	-44.9487	50.1349	-49.8271	-8.59071	79.7044	-55.7059	-38.1863	53.738	-64.1368	-24.3765	61.0993	-56.8633	1.12545	103.879	-16.3217	-6.53286	107.977	-18.7951	19.8197	81.6947	7.40817	11.4047	
42	0.35	46.8218	-12.9607	17.3073	28.5109	-31.4374	-6.93308	27.7972	-48.8255	-36.8925	45.7345	-65.7361	-51.6657	56.949	4.34363	-58.366	48.7064	3.36738	-80.9128	37.7972	-2.05452	-104.12	77.8678	-8.08791	-68.0577	63.6317	-23.2278	-89.5783	41.0505	-52.4596	-71.2197	76.3643	-36.9998	-56.3685	57.6024	-61.011	-54.6827	52.9885	-57.114	-23.1614	88.9198	-56.6007	-42.432	67.0091	-72.4387	-33.4122	67.2779	-60.3959	-3.38193	104.323	-14.0077	-7.72953	109.539	-16.5531	18.2463	78.4744	4.96941	5.88584	
43	0.358333	44.7012	-20.2992	10.4547	36.1898	-41.3445	-16.7228	41.5045	-57.9893	-43.0419	61.9809	-69.2261	-53.7756	59.7622	1.54931	-59.7242	47.2023	2.65826	-90.1926	40.751	-2.4063	-110.499	85.722	-0.736389	-64.2147	79.802	-4.16043	-98.124	66.2809	-32.9716	-115.278	92.1703	-30.7125	-62.3443	75.7717	-59.0995	-67.3465	70.7549	-62.2338	-36.2479	102.488	-53.0264	-48.8886	81.6755	-70.0604	-41.6198	77.5053	-62.7255	-12.5976	105.562	-9.02198	-9.61926	109.486	-9.97197	16.6698	79.4375	2.01575	5.46378	
44	0.366667	51.3407	-26.3855	-0.332054	42.9668	-47.9146	-24.9179	54.6669	-64.3656	-49.6239	79.1465	-72.7547	-58.2234	60.4306	1.66289	-70.7088	52.0271	0.988294	-92.8774	50.6509	-2.66978	-119.578	90.1031	0.569339	-72.8325	93.0888	-0.903232	-102.647	88.7207	-12.4683	-133.587	101.432	-29.8898	-70.2272	89.9817	-57.9601	-75.8152	81.7275	-63.9275	-45.865	109.27	-47.1943	-50.7639	93.9027	-70.2012	-44.2226	82.7222	-61.5183	-20.2479	108.887	-4.62938	-17.3722	109.131	-8.74722	16.84	76.4425	2.3179	0.127405	
45	0.375	54.8444	-29.5126	-7.21522	50.0927	-53.6518	-35.5819	63.6936	-70.683	-59.4625	92.8442	-77.074	-64.1006	69.0872	-2.78626	-73.907	57.698	-2.98188	-100.242	54.597	-4.40009	-127.745	95.8231	-2.59837	-78.6718	97.8293	-2.60937	-104.759	102.829	-7.42945	-137.919	107.833	-29.3189	-70.8848	100.114	-59.9423	-81.0421	87.6749	-68.3407	-52.0501	119.063	-51.7957	-55.6617	102.622	-69.9549	-51.103	90.6529	-68.1068	-20.9344	109.571	-6.05849	-20.237	113.913	-7.00846	12.6359	76.8086	2.01024	-10.1225	
46	0.383333	55.9989	-37.7698	-13.542	55.6832	-63.4809	-38.5403	72.7112	-84.0709	-62.3481	96.74	-87.9993	-61.2347	70.894	-16.4299	-82.0984	67.3605	-18.6976	-108.39	64.0889	-22.0616	-136.502	104.077	-17.8995	-84.795	106.762	-19.7076	-113.17	112.454	-24.9708	-142.631	114.627	-42.057	-75.4016	107.137	-73.6455	-82.7071	93.1712	-78.7151	-53.1224	126.453	-64.7155	-57.4609	107.041	-83.9776	-46.412	92.4739	-74.3655	-26.381	119.315	-16.9066	-29.3553	117.82	-12.6442	1.65179	85.1585	-6.8764	-17.1631	
47	0.391667	61.1521	-44.2511	-12.2135	53.2482	-76.9027	-36.4638	67.7939	-99.849	-54.1443	97.0679	-102.671	-53.4678	72.0279	-37.45	-85.529	69.8923	-44.6287	-113.194	61.1811	-50.1357	-134.922	108.678	-42.3533	-90.6678	109.613	-49.9156	-119.466	111.236	-59.5892	-148.217	117.019	-64.5337	-75.3616	108.378	-97.0671	-74.4603	93.0378	-93.6784	-47.542	125.148	-81.5523	-54.0034	104.988	-97.0647	-45.4908	90.2986	-86.0179	-23.512	122.202	-28.5432	-31.9397	118.015	-20.3038	-1.40844	87.0284	-16.5736	-20.8485	
